<svg xmlns="http://www.w3.org/2000/svg" xmlns:xlink="http://www.w3.org/1999/xlink" width="116" zoomAndPan="magnify" viewBox="0 0 87 125.999998" height="168" preserveAspectRatio="xMidYMid meet" version="1.0"><defs><g/><clipPath id="e3e29d3444"><path d="M 2.578125 30.578125 L 83 30.578125 L 83 95.492188 L 2.578125 95.492188 Z M 2.578125 30.578125 " clip-rule="nonzero"/></clipPath><clipPath id="ae25c84130"><path d="M 8.578125 30.578125 L 76.980469 30.578125 C 78.570312 30.578125 80.097656 31.210938 81.222656 32.335938 C 82.347656 33.460938 82.980469 34.988281 82.980469 36.578125 L 82.980469 89.492188 C 82.980469 91.082031 82.347656 92.609375 81.222656 93.734375 C 80.097656 94.859375 78.570312 95.492188 76.980469 95.492188 L 8.578125 95.492188 C 6.988281 95.492188 5.460938 94.859375 4.335938 93.734375 C 3.210938 92.609375 2.578125 91.082031 2.578125 89.492188 L 2.578125 36.578125 C 2.578125 34.988281 3.210938 33.460938 4.335938 32.335938 C 5.460938 31.210938 6.988281 30.578125 8.578125 30.578125 Z M 8.578125 30.578125 " clip-rule="nonzero"/></clipPath><clipPath id="c1e49e241a"><path d="M 0.578125 0.578125 L 81 0.578125 L 81 65.492188 L 0.578125 65.492188 Z M 0.578125 0.578125 " clip-rule="nonzero"/></clipPath><clipPath id="692003387c"><path d="M 6.578125 0.578125 L 74.980469 0.578125 C 76.570312 0.578125 78.097656 1.210938 79.222656 2.335938 C 80.347656 3.460938 80.980469 4.988281 80.980469 6.578125 L 80.980469 59.492188 C 80.980469 61.082031 80.347656 62.609375 79.222656 63.734375 C 78.097656 64.859375 76.570312 65.492188 74.980469 65.492188 L 6.578125 65.492188 C 4.988281 65.492188 3.460938 64.859375 2.335938 63.734375 C 1.210938 62.609375 0.578125 61.082031 0.578125 59.492188 L 0.578125 6.578125 C 0.578125 4.988281 1.210938 3.460938 2.335938 2.335938 C 3.460938 1.210938 4.988281 0.578125 6.578125 0.578125 Z M 6.578125 0.578125 " clip-rule="nonzero"/></clipPath><clipPath id="93047a51df"><rect x="0" width="81" y="0" height="66"/></clipPath><clipPath id="6c142ca580"><path d="M 2.578125 63.035156 L 83 63.035156 L 83 95.492188 L 2.578125 95.492188 Z M 2.578125 63.035156 " clip-rule="nonzero"/></clipPath><clipPath id="3a5610bffb"><path d="M 8.578125 63.035156 L 76.980469 63.035156 C 78.570312 63.035156 80.097656 63.667969 81.222656 64.792969 C 82.347656 65.917969 82.980469 67.445312 82.980469 69.035156 L 82.980469 89.492188 C 82.980469 91.082031 82.347656 92.609375 81.222656 93.734375 C 80.097656 94.859375 78.570312 95.492188 76.980469 95.492188 L 8.578125 95.492188 C 6.988281 95.492188 5.460938 94.859375 4.335938 93.734375 C 3.210938 92.609375 2.578125 91.082031 2.578125 89.492188 L 2.578125 69.035156 C 2.578125 67.445312 3.210938 65.917969 4.335938 64.792969 C 5.460938 63.667969 6.988281 63.035156 8.578125 63.035156 Z M 8.578125 63.035156 " clip-rule="nonzero"/></clipPath><clipPath id="a24ab1c8dd"><path d="M 0.578125 0.0351562 L 81 0.0351562 L 81 32.492188 L 0.578125 32.492188 Z M 0.578125 0.0351562 " clip-rule="nonzero"/></clipPath><clipPath id="840c5b9bd3"><path d="M 6.578125 0.0351562 L 74.980469 0.0351562 C 76.570312 0.0351562 78.097656 0.667969 79.222656 1.792969 C 80.347656 2.917969 80.980469 4.445312 80.980469 6.035156 L 80.980469 26.492188 C 80.980469 28.082031 80.347656 29.609375 79.222656 30.734375 C 78.097656 31.859375 76.570312 32.492188 74.980469 32.492188 L 6.578125 32.492188 C 4.988281 32.492188 3.460938 31.859375 2.335938 30.734375 C 1.210938 29.609375 0.578125 28.082031 0.578125 26.492188 L 0.578125 6.035156 C 0.578125 4.445312 1.210938 2.917969 2.335938 1.792969 C 3.460938 0.667969 4.988281 0.0351562 6.578125 0.0351562 Z M 6.578125 0.0351562 " clip-rule="nonzero"/></clipPath><clipPath id="e2bec6270d"><rect x="0" width="81" y="0" height="33"/></clipPath><clipPath id="e27a9b6630"><path d="M 2.578125 62.953125 L 82.980469 62.953125 L 82.980469 79.261719 L 2.578125 79.261719 Z M 2.578125 62.953125 " clip-rule="nonzero"/></clipPath><clipPath id="0b6ab064ab"><path d="M 0.578125 0.953125 L 80.980469 0.953125 L 80.980469 17.261719 L 0.578125 17.261719 Z M 0.578125 0.953125 " clip-rule="nonzero"/></clipPath><clipPath id="314517c990"><rect x="0" width="81" y="0" height="18"/></clipPath></defs><g fill="#ff751f" fill-opacity="1"><g transform="translate(21.801626, 48.489792)"><g><path d="M 3.34375 0.355469 C 4.46875 0.355469 5.464844 0.164062 6.34375 -0.234375 C 7.492188 -0.75 8.066406 -1.515625 8.066406 -2.523438 C 8.066406 -3.351562 7.785156 -4 7.234375 -4.46875 C 6.730469 -4.890625 6.046875 -5.132812 5.179688 -5.203125 C 4.679688 -5.226562 4.183594 -5.253906 3.683594 -5.285156 C 3.398438 -5.320312 3.179688 -5.390625 3.039062 -5.484375 C 2.898438 -5.578125 2.828125 -5.699219 2.828125 -5.851562 C 2.828125 -6.132812 3.0625 -6.398438 3.53125 -6.644531 C 3.984375 -6.878906 4.464844 -7 4.96875 -7.007812 C 5.15625 -7.007812 5.429688 -6.964844 5.792969 -6.890625 C 6.15625 -6.808594 6.433594 -6.773438 6.621094 -6.773438 C 6.867188 -6.773438 7.066406 -6.859375 7.222656 -7.035156 C 7.363281 -7.1875 7.433594 -7.371094 7.433594 -7.574219 C 7.433594 -7.855469 7.082031 -8.109375 6.386719 -8.332031 C 5.824219 -8.507812 5.347656 -8.59375 4.96875 -8.59375 C 4 -8.59375 3.117188 -8.273438 2.320312 -7.640625 C 1.515625 -7.007812 1.113281 -6.308594 1.101562 -5.546875 C 1.089844 -4.9375 1.441406 -4.476562 2.167969 -4.152344 C 2.699219 -3.914062 3.304688 -3.785156 3.984375 -3.773438 C 4.851562 -3.75 5.429688 -3.683594 5.722656 -3.574219 C 6.128906 -3.414062 6.332031 -3.09375 6.332031 -2.601562 C 6.332031 -2.238281 6.003906 -1.910156 5.355469 -1.609375 C 4.722656 -1.316406 4.070312 -1.171875 3.402344 -1.171875 C 2.617188 -1.171875 2.113281 -1.410156 1.890625 -1.890625 C 1.726562 -2.25 1.46875 -2.429688 1.117188 -2.429688 C 0.855469 -2.429688 0.648438 -2.347656 0.503906 -2.183594 C 0.351562 -2.019531 0.28125 -1.820312 0.28125 -1.574219 C 0.28125 -1.09375 0.519531 -0.667969 1 -0.304688 C 1.570312 0.140625 2.347656 0.355469 3.34375 0.355469 Z M 3.34375 0.355469 "/></g></g></g><g fill="#ff751f" fill-opacity="1"><g transform="translate(30.121938, 48.489792)"><g><path d="M 3.304688 0.34375 C 4.183594 0.34375 4.878906 0.046875 5.40625 -0.5625 C 5.894531 -1.125 6.140625 -1.832031 6.140625 -2.6875 C 6.140625 -3.601562 5.980469 -4.347656 5.675781 -4.921875 C 5.261719 -5.683594 4.605469 -6.0625 3.707031 -6.0625 C 3.4375 -6.0625 3.175781 -6.023438 2.910156 -5.953125 C 2.648438 -5.882812 2.382812 -5.769531 2.125 -5.625 L 2.132812 -5.683594 C 2.132812 -5.886719 2.054688 -6.0625 1.910156 -6.214844 C 1.757812 -6.363281 1.574219 -6.4375 1.359375 -6.4375 C 1.070312 -6.4375 0.84375 -6.304688 0.679688 -6.046875 C 0.53125 -5.8125 0.460938 -5.535156 0.460938 -5.214844 C 0.460938 -5.285156 0.492188 -4.898438 0.550781 -4.058594 C 0.589844 -3.449219 0.621094 -2.722656 0.632812 -1.878906 C 0.636719 -1.28125 0.636719 -0.507812 0.632812 0.433594 C 0.621094 1.710938 0.621094 2.4375 0.621094 2.617188 C 0.621094 2.847656 0.695312 3.035156 0.847656 3.179688 C 1 3.332031 1.195312 3.402344 1.429688 3.402344 C 1.664062 3.402344 1.855469 3.332031 2.007812 3.179688 C 2.160156 3.035156 2.238281 2.847656 2.238281 2.617188 L 2.242188 0.226562 C 2.613281 0.308594 2.964844 0.34375 3.304688 0.34375 Z M 3.707031 -4.5 C 4.089844 -4.5 4.335938 -4.257812 4.453125 -3.785156 C 4.5 -3.578125 4.523438 -3.214844 4.523438 -2.6875 C 4.523438 -2.25 4.421875 -1.902344 4.230469 -1.644531 C 4.011719 -1.359375 3.703125 -1.21875 3.304688 -1.21875 C 2.953125 -1.21875 2.605469 -1.269531 2.261719 -1.386719 C 2.261719 -2.195312 2.238281 -3 2.191406 -3.808594 C 2.449219 -4.035156 2.699219 -4.207031 2.957031 -4.324219 C 3.210938 -4.441406 3.460938 -4.5 3.707031 -4.5 Z M 3.707031 -4.5 "/></g></g></g><g fill="#ff751f" fill-opacity="1"><g transform="translate(36.537953, 48.489792)"><g><path d="M 3.550781 0.269531 C 4.160156 0.269531 4.738281 0.152344 5.289062 -0.0820312 C 5.941406 -0.363281 6.269531 -0.726562 6.269531 -1.171875 C 6.269531 -1.5625 6.0625 -1.761719 5.660156 -1.761719 C 5.460938 -1.761719 5.203125 -1.664062 4.878906 -1.476562 C 4.515625 -1.257812 4.070312 -1.152344 3.550781 -1.152344 C 3.203125 -1.152344 2.898438 -1.199219 2.636719 -1.304688 C 2.367188 -1.40625 2.144531 -1.558594 1.957031 -1.761719 L 3.929688 -2.636719 C 4.585938 -2.929688 5.027344 -3.152344 5.25 -3.304688 C 5.730469 -3.632812 5.96875 -4.011719 5.96875 -4.445312 C 5.96875 -5.054688 5.671875 -5.5 5.085938 -5.792969 C 4.632812 -6.011719 4.070312 -6.121094 3.390625 -6.121094 C 2.40625 -6.121094 1.628906 -5.742188 1.054688 -4.984375 C 0.53125 -4.300781 0.273438 -3.460938 0.273438 -2.476562 C 0.273438 -1.582031 0.601562 -0.890625 1.257812 -0.398438 C 1.851562 0.046875 2.613281 0.269531 3.550781 0.269531 Z M 3.390625 -4.703125 C 3.8125 -4.703125 4.152344 -4.628906 4.417969 -4.480469 C 4.101562 -4.277344 3.683594 -4.054688 3.15625 -3.820312 C 2.71875 -3.632812 2.277344 -3.4375 1.839844 -3.25 C 1.992188 -3.730469 2.203125 -4.09375 2.460938 -4.339844 C 2.71875 -4.582031 3.027344 -4.703125 3.390625 -4.703125 Z M 3.390625 -4.703125 "/></g></g></g><g fill="#ff751f" fill-opacity="1"><g transform="translate(43.246937, 48.489792)"><g><path d="M 5.652344 0.386719 C 5.859375 0.386719 6.039062 0.320312 6.199219 0.179688 C 6.355469 0.046875 6.4375 -0.121094 6.4375 -0.332031 C 6.4375 -0.378906 6.363281 -0.566406 6.210938 -0.90625 C 6.039062 -1.277344 5.953125 -1.480469 5.941406 -1.515625 C 5.835938 -1.84375 5.78125 -2.378906 5.78125 -3.128906 C 5.78125 -3.445312 5.789062 -3.71875 5.8125 -3.953125 C 5.835938 -4.1875 5.863281 -4.386719 5.90625 -4.546875 C 5.992188 -4.652344 6.039062 -4.773438 6.039062 -4.914062 C 6.039062 -5.25 5.742188 -5.542969 5.15625 -5.800781 C 4.664062 -6.011719 4.234375 -6.117188 3.867188 -6.117188 C 2.894531 -6.117188 2.0625 -5.777344 1.371094 -5.109375 C 0.671875 -4.441406 0.328125 -3.632812 0.328125 -2.695312 C 0.328125 -1.6875 0.5625 -0.9375 1.03125 -0.433594 C 1.5 0.0703125 2.207031 0.320312 3.152344 0.320312 C 3.339844 0.320312 3.574219 0.28125 3.847656 0.191406 C 4.117188 0.105469 4.433594 -0.0234375 4.796875 -0.199219 C 5.183594 0.191406 5.472656 0.386719 5.652344 0.386719 Z M 4.199219 -3.632812 C 4.199219 -3.167969 4.257812 -2.472656 4.375 -1.546875 C 4.183594 -1.386719 3.976562 -1.269531 3.761719 -1.1875 C 3.542969 -1.105469 3.316406 -1.070312 3.074219 -1.070312 C 2.699219 -1.070312 2.417969 -1.199219 2.230469 -1.464844 C 2.042969 -1.726562 1.949219 -2.121094 1.949219 -2.648438 C 1.949219 -3.191406 2.148438 -3.671875 2.546875 -4.089844 C 2.945312 -4.503906 3.410156 -4.714844 3.941406 -4.714844 C 3.984375 -4.714844 4.035156 -4.703125 4.09375 -4.6875 C 4.152344 -4.667969 4.222656 -4.640625 4.304688 -4.605469 C 4.269531 -4.40625 4.242188 -4.222656 4.222656 -4.058594 C 4.207031 -3.894531 4.199219 -3.753906 4.199219 -3.632812 Z M 4.199219 -3.632812 "/></g></g></g><g fill="#ff751f" fill-opacity="1"><g transform="translate(49.914906, 48.489792)"><g><path d="M 5.523438 0.238281 C 5.742188 0.238281 5.933594 0.167969 6.109375 0.015625 C 6.28125 -0.132812 6.367188 -0.316406 6.367188 -0.53125 C 6.367188 -0.789062 6.070312 -1.316406 5.484375 -2.101562 L 4.265625 -3.671875 C 4.898438 -4.234375 5.449219 -4.773438 5.910156 -5.289062 C 6.0625 -5.453125 6.140625 -5.628906 6.140625 -5.8125 C 6.140625 -6.023438 6.050781 -6.203125 5.886719 -6.367188 C 5.71875 -6.527344 5.523438 -6.609375 5.308594 -6.609375 C 5.085938 -6.609375 4.890625 -6.519531 4.722656 -6.351562 C 3.632812 -5.265625 2.824219 -4.523438 2.296875 -4.113281 C 2.289062 -4.585938 2.300781 -5.132812 2.324219 -5.742188 C 2.347656 -6.375 2.359375 -6.925781 2.359375 -7.394531 C 2.359375 -7.5625 2.347656 -7.769531 2.332031 -8.003906 C 2.308594 -8.238281 2.300781 -8.4375 2.300781 -8.613281 C 2.300781 -8.835938 2.226562 -9.023438 2.074219 -9.167969 C 1.921875 -9.316406 1.726562 -9.390625 1.492188 -9.390625 C 1.257812 -9.390625 1.066406 -9.316406 0.914062 -9.167969 C 0.761719 -9.023438 0.683594 -8.835938 0.683594 -8.613281 C 0.683594 -8.441406 0.691406 -8.242188 0.707031 -8.015625 C 0.726562 -7.785156 0.738281 -7.585938 0.738281 -7.421875 C 0.738281 -6.859375 0.726562 -6.214844 0.707031 -5.488281 C 0.691406 -4.761719 0.683594 -4.113281 0.683594 -3.550781 C 0.683594 -3.238281 0.660156 -2.777344 0.613281 -2.160156 C 0.566406 -1.546875 0.550781 -1.082031 0.550781 -0.777344 C 0.550781 -0.121094 0.824219 0.203125 1.375 0.203125 C 1.609375 0.203125 1.804688 0.132812 1.957031 -0.015625 C 2.109375 -0.164062 2.183594 -0.351562 2.183594 -0.578125 C 2.183594 -1.070312 2.203125 -1.59375 2.242188 -2.136719 C 2.441406 -2.253906 2.699219 -2.429688 3.015625 -2.664062 C 3.050781 -2.617188 3.363281 -2.214844 3.960938 -1.464844 C 4.339844 -0.976562 4.628906 -0.554688 4.820312 -0.203125 C 4.980469 0.09375 5.214844 0.238281 5.523438 0.238281 Z M 5.523438 0.238281 "/></g></g></g><g fill="#ff751f" fill-opacity="1"><g transform="translate(56.395374, 48.489792)"><g><path d="M 2.402344 -0.859375 L 2.402344 -8.648438 C 2.402344 -8.871094 2.324219 -9.050781 2.179688 -9.191406 C 2.027344 -9.332031 1.839844 -9.402344 1.609375 -9.402344 C 1.375 -9.402344 1.183594 -9.332031 1.03125 -9.203125 C 0.867188 -9.058594 0.785156 -8.871094 0.785156 -8.648438 L 0.785156 -0.542969 C 0.785156 -0.308594 0.859375 -0.117188 1.011719 0.0273438 C 1.164062 0.179688 1.359375 0.25 1.59375 0.25 C 2.132812 0.25 2.402344 -0.117188 2.402344 -0.859375 Z M 2.402344 -0.859375 "/></g></g></g><g fill="#ff751f" fill-opacity="1"><g transform="translate(59.682483, 48.489792)"><g><path d="M 6.421875 -4.949219 C 6.484375 -5.085938 6.519531 -5.207031 6.519531 -5.324219 C 6.519531 -5.535156 6.433594 -5.71875 6.261719 -5.871094 C 6.085938 -6.015625 5.894531 -6.09375 5.675781 -6.09375 C 5.382812 -6.09375 5.148438 -5.953125 4.984375 -5.671875 C 4.714844 -5.226562 4.445312 -4.714844 4.171875 -4.136719 C 4.078125 -3.941406 3.824219 -3.386719 3.410156 -2.460938 C 2.671875 -3.941406 2.019531 -5.054688 1.46875 -5.792969 C 1.324219 -5.980469 1.125 -6.082031 0.867188 -6.082031 C 0.644531 -6.082031 0.449219 -6 0.285156 -5.839844 C 0.117188 -5.675781 0.0351562 -5.496094 0.0351562 -5.285156 C 0.0351562 -5.132812 0.0859375 -4.96875 0.191406 -4.792969 C 0.285156 -4.640625 0.386719 -4.488281 0.480469 -4.339844 C 1.410156 -2.6875 2.089844 -1.441406 2.523438 -0.597656 C 1.691406 1.195312 1.28125 2.265625 1.28125 2.628906 C 1.28125 2.851562 1.363281 3.035156 1.535156 3.175781 C 1.699219 3.320312 1.898438 3.390625 2.121094 3.390625 C 2.476562 3.390625 2.730469 3.210938 2.871094 2.839844 C 3.046875 2.367188 3.175781 2.007812 3.257812 1.761719 C 3.515625 1.09375 3.894531 0.246094 4.398438 -0.773438 C 5.320312 -2.671875 5.992188 -4.058594 6.421875 -4.949219 Z M 6.421875 -4.949219 "/></g></g></g><g clip-path="url(#e3e29d3444)"><g clip-path="url(#ae25c84130)"><g transform="matrix(1, 0, 0, 1, 2, 30)"><g clip-path="url(#93047a51df)"><g clip-path="url(#c1e49e241a)"><g clip-path="url(#692003387c)"><path fill="#6eb8e2" d="M 0.578125 0.578125 L 80.957031 0.578125 L 80.957031 65.492188 L 0.578125 65.492188 Z M 0.578125 0.578125 " fill-opacity="1" fill-rule="nonzero"/></g></g></g></g></g></g><g clip-path="url(#6c142ca580)"><g clip-path="url(#3a5610bffb)"><g transform="matrix(1, 0, 0, 1, 2, 63)"><g clip-path="url(#e2bec6270d)"><g clip-path="url(#a24ab1c8dd)"><g clip-path="url(#840c5b9bd3)"><path fill="#ffa83d" d="M 0.578125 0.0351562 L 80.957031 0.0351562 L 80.957031 32.492188 L 0.578125 32.492188 Z M 0.578125 0.0351562 " fill-opacity="1" fill-rule="nonzero"/></g></g></g></g></g></g><g clip-path="url(#e27a9b6630)"><g transform="matrix(1, 0, 0, 1, 2, 62)"><g clip-path="url(#314517c990)"><g clip-path="url(#0b6ab064ab)"><path fill="#ffa83d" d="M 0.578125 0.953125 L 80.976562 0.953125 L 80.976562 17.261719 L 0.578125 17.261719 Z M 0.578125 0.953125 " fill-opacity="1" fill-rule="nonzero"/></g></g></g></g><g fill="#ffffff" fill-opacity="1"><g transform="translate(20.788447, 88.454218)"><g><path d="M 22.21875 0.859375 C 18.289062 0.859375 14.492188 0.328125 10.828125 -0.734375 C 7.160156 -1.804688 4.210938 -3.195312 1.984375 -4.90625 L 5.890625 -13.5625 C 8.023438 -12 10.554688 -10.742188 13.484375 -9.796875 C 16.421875 -8.847656 19.359375 -8.375 22.296875 -8.375 C 25.554688 -8.375 27.96875 -8.859375 29.53125 -9.828125 C 31.09375 -10.796875 31.875 -12.085938 31.875 -13.703125 C 31.875 -14.890625 31.410156 -15.875 30.484375 -16.65625 C 29.566406 -17.4375 28.382812 -18.0625 26.9375 -18.53125 C 25.5 -19 23.550781 -19.519531 21.09375 -20.09375 C 17.300781 -20.988281 14.195312 -21.882812 11.78125 -22.78125 C 9.375 -23.6875 7.304688 -25.132812 5.578125 -27.125 C 3.847656 -29.113281 2.984375 -31.765625 2.984375 -35.078125 C 2.984375 -37.960938 3.765625 -40.578125 5.328125 -42.921875 C 6.890625 -45.265625 9.242188 -47.117188 12.390625 -48.484375 C 15.535156 -49.859375 19.378906 -50.546875 23.921875 -50.546875 C 27.097656 -50.546875 30.195312 -50.164062 33.21875 -49.40625 C 36.25 -48.65625 38.90625 -47.570312 41.1875 -46.15625 L 37.625 -37.421875 C 33.039062 -40.023438 28.453125 -41.328125 23.859375 -41.328125 C 20.640625 -41.328125 18.257812 -40.804688 16.71875 -39.765625 C 15.175781 -38.722656 14.40625 -37.347656 14.40625 -35.640625 C 14.40625 -33.941406 15.289062 -32.675781 17.0625 -31.84375 C 18.84375 -31.007812 21.554688 -30.191406 25.203125 -29.390625 C 28.992188 -28.492188 32.09375 -27.59375 34.5 -26.6875 C 36.914062 -25.789062 38.988281 -24.375 40.71875 -22.4375 C 42.445312 -20.5 43.3125 -17.875 43.3125 -14.5625 C 43.3125 -11.71875 42.515625 -9.125 40.921875 -6.78125 C 39.335938 -4.4375 36.957031 -2.578125 33.78125 -1.203125 C 30.613281 0.171875 26.757812 0.859375 22.21875 0.859375 Z M 22.21875 0.859375 "/></g></g></g></svg>